<?xml version="1.0" encoding="UTF-8"?>
<svg width="338px" height="86px" viewBox="0 0 338 86" version="1.1" xmlns="http://www.w3.org/2000/svg" xmlns:xlink="http://www.w3.org/1999/xlink">
    <title>Group 2</title>
    <g id="Components---1440px" stroke="none" stroke-width="1" fill="none" fill-rule="evenodd">
        <g id="Group-2" transform="translate(0.280000, 0.800000)" fill="#000000" fill-rule="nonzero">
            <g id="Group">
                <g id="ALLIANZ">
                    <path d="M29.064,39.2 L37.8,39.2 L22.904,0 L14.896,0 L0,39.2 L8.736,39.2 L11.816,30.632 L25.984,30.632 L29.064,39.2 Z M14.336,23.576 L18.928,10.864 L23.464,23.576 L14.336,23.576 Z" id="Shape"></path>
                    <polygon id="Path" points="40.272 39.2 66.536 39.2 66.536 31.92 48.728 31.92 48.728 0 40.272 0"></polygon>
                    <polygon id="Path" points="69.792 39.2 96.056 39.2 96.056 31.92 78.248 31.92 78.248 0 69.792 0"></polygon>
                    <polygon id="Path" points="99.312 39.2 107.768 39.2 107.768 0 99.312 0"></polygon>
                    <path d="M139.752,39.2 L148.488,39.2 L133.592,0 L125.584,0 L110.688,39.2 L119.424,39.2 L122.504,30.632 L136.672,30.632 L139.752,39.2 Z M125.024,23.576 L129.616,10.864 L134.152,23.576 L125.024,23.576 Z" id="Shape"></path>
                    <polygon id="Path" points="150.96 39.2 159.36 39.2 159.36 13.272 175.096 39.2 184.056 39.2 184.056 0 175.656 0 175.656 25.928 159.92 0 150.96 0"></polygon>
                    <polygon id="Path" points="188.04 39.2 218.336 39.2 218.336 32.032 197.616 32.032 218.28 7.168 218.28 0 189.104 0 189.104 7.168 208.928 7.168 188.04 32.032"></polygon>
                </g>
                <g id="FOUNDATION" transform="translate(0.360000, 44.552000)">
                    <polygon id="Path" points="0 39.648 8.4 39.648 8.4 23.688 22.96 23.688 22.96 16.408 8.4 16.408 8.4 7.672 26.656 7.672 26.656 0.448 0 0.448"></polygon>
                    <path d="M47.832,40.096 C59.312,40.096 67.824,31.584 67.824,20.048 C67.824,8.512 59.312,0 47.832,0 C36.296,0 27.784,8.512 27.784,20.048 C27.784,31.584 36.296,40.096 47.832,40.096 Z M47.776,32.816 C41.056,32.816 36.24,27.384 36.24,20.048 C36.24,12.712 41.056,7.224 47.776,7.224 C54.496,7.224 59.368,12.712 59.368,20.048 C59.368,27.384 54.496,32.816 47.776,32.816 Z" id="Shape"></path>
                    <path d="M87.152,40.096 C96.448,40.096 102.776,35.112 102.776,25.2 L102.776,0.448 L94.936,0.448 L94.936,25.2 C94.936,30.352 91.688,32.76 87.152,32.76 C82.616,32.76 79.424,30.352 79.424,25.2 L79.424,0.448 L71.528,0.448 L71.528,25.2 C71.528,35.112 77.912,40.096 87.152,40.096 Z" id="Path"></path>
                    <polygon id="Path" points="108.272 39.648 116.672 39.648 116.672 13.72 132.408 39.648 141.368 39.648 141.368 0.448 132.968 0.448 132.968 26.376 117.232 0.448 108.272 0.448"></polygon>
                    <path d="M147.648,39.648 L160.808,39.648 C171.616,39.648 181.08,33.376 181.08,20.048 C181.08,6.664 171.616,0.448 160.808,0.448 L147.648,0.448 L147.648,39.648 Z M156.048,32.368 L156.048,7.672 L159.968,7.672 C166.408,7.672 172.568,10.808 172.568,20.048 C172.568,29.288 166.408,32.368 159.968,32.368 L156.048,32.368 Z" id="Shape"></path>
                    <path d="M209.592,39.648 L218.328,39.648 L203.432,0.448 L195.424,0.448 L180.528,39.648 L189.264,39.648 L192.344,31.08 L206.512,31.08 L209.592,39.648 Z M194.864,24.024 L199.456,11.312 L203.992,24.024 L194.864,24.024 Z" id="Shape"></path>
                    <polygon id="Path" points="224.496 39.648 232.896 39.648 232.896 7.672 244.488 7.672 244.488 0.448 212.904 0.448 212.904 7.672 224.496 7.672"></polygon>
                    <polygon id="Path" points="246.736 39.648 255.192 39.648 255.192 0.448 246.736 0.448"></polygon>
                    <path d="M279.784,40.096 C291.264,40.096 299.776,31.584 299.776,20.048 C299.776,8.512 291.264,0 279.784,0 C268.248,0 259.736,8.512 259.736,20.048 C259.736,31.584 268.248,40.096 279.784,40.096 Z M279.728,32.816 C273.008,32.816 268.192,27.384 268.192,20.048 C268.192,12.712 273.008,7.224 279.728,7.224 C286.448,7.224 291.32,12.712 291.32,20.048 C291.32,27.384 286.448,32.816 279.728,32.816 Z" id="Shape"></path>
                    <polygon id="Path" points="304.264 39.648 312.664 39.648 312.664 13.72 328.4 39.648 337.36 39.648 337.36 0.448 328.96 0.448 328.96 26.376 313.224 0.448 304.264 0.448"></polygon>
                </g>
            </g>
        </g>
    </g>
</svg>