<?xml version="1.0" encoding="UTF-8"?>
<svg width="46px" height="46px" viewBox="0 0 46 46" version="1.1" xmlns="http://www.w3.org/2000/svg" xmlns:xlink="http://www.w3.org/1999/xlink">
    <title>noun-search-2340874</title>
    <g id="Components---1440px" stroke="none" stroke-width="1" fill="none" fill-rule="evenodd">
        <g id="Logo-und-Kopfzeile" transform="translate(-1270.000000, -52.000000)">
            <g id="noun-search-2340874" transform="translate(1270.000000, 52.000000)">
                <path d="M8.80309935,8.8035709 C3.73204501,13.8749988 3.73255543,22.1257668 8.80309935,27.1971947 C13.8751745,32.2676018 22.1256549,32.2676018 27.1967092,27.1971947 C32.2677636,22.1257668 32.2677636,13.8749988 27.1967092,8.8035709 C22.1256549,3.73214303 13.8751745,3.73214303 8.80309935,8.8035709 Z" id="Path"></path>
                <path d="M33.1686625,28.298566 C37.9418894,21.2431392 37.2150954,11.5498497 30.9724363,5.30709519 C23.896162,-1.76877617 12.382969,-1.76928728 5.30720577,5.30709519 C-1.76906859,12.3834777 -1.76906859,23.8958243 5.30720577,30.973229 C11.550376,37.2164946 21.241473,37.9432996 28.2983253,33.1684664 L41.1286406,46 L46,41.1290773 L33.1686625,28.298566 Z M27.3486888,27.3499372 C22.2708422,32.4273502 14.009311,32.4273502 8.93044225,27.3499372 C3.85310678,22.2715019 3.85259567,14.0093334 8.93044225,8.93089813 C14.009311,3.85246287 22.2708422,3.85246287 27.3486888,8.93089813 C32.4270464,14.0093334 32.4270464,22.2715019 27.3486888,27.3499372 Z" id="Shape" fill="#000000" fill-rule="nonzero"></path>
            </g>
        </g>
    </g>
</svg>